<?xml version="1.0" encoding="UTF-8"?>
<svg xmlns="http://www.w3.org/2000/svg" xmlns:xlink="http://www.w3.org/1999/xlink" width="375pt" height="374.999991pt" viewBox="0 0 375 374.999991" version="1.2">
<defs>
<clipPath id="clip1">
  <path d="M 114.75 135 L 260.25 135 L 260.25 200 L 114.75 200 Z M 114.75 135 "/>
</clipPath>
<clipPath id="clip2">
  <path d="M 206 243 L 244 243 L 244 262.5 L 206 262.5 Z M 206 243 "/>
</clipPath>
<clipPath id="clip3">
  <path d="M 131 243 L 169 243 L 169 262.5 L 131 262.5 Z M 131 243 "/>
</clipPath>
<clipPath id="clip4">
  <path d="M 161 112.5 L 204 112.5 L 204 141 L 161 141 Z M 161 112.5 "/>
</clipPath>
<clipPath id="clip5">
  <path d="M 172.222656 235.3125 L 202.972656 235.3125 L 202.972656 254.683594 L 172.222656 254.683594 Z M 172.222656 235.3125 "/>
</clipPath>
</defs>
<g id="surface1">
<g clip-path="url(#clip1)" clip-rule="nonzero">
<path style="fill:none;stroke-width:2;stroke-linecap:butt;stroke-linejoin:round;stroke:rgb(20.388794%,18.818665%,23.919678%);stroke-opacity:1;stroke-miterlimit:10;" d="M 2.000001 36.000006 L 2.000001 12.000004 C 2.000001 11.743337 2.098335 11.488337 2.293335 11.293337 C 2.488335 11.098337 2.743335 11.000004 3.000001 11.000004 L 61.000005 11.000004 C 61.256672 11.000004 61.511672 11.098337 61.706672 11.293337 C 61.901672 11.488337 62.000005 11.743337 62.000005 12.000004 L 62.000005 36.000006 " transform="matrix(2.34375,0,0,2.34375,112.499997,112.499993)"/>
</g>
<path style=" stroke:none;fill-rule:nonzero;fill:rgb(34.118652%,86.268616%,94.898987%);fill-opacity:1;" d="M 126.5625 161.71875 L 135.9375 161.71875 L 135.9375 171.09375 L 126.5625 171.09375 Z M 126.5625 161.71875 "/>
<path style=" stroke:none;fill-rule:nonzero;fill:rgb(34.118652%,86.268616%,94.898987%);fill-opacity:1;" d="M 140.625 161.71875 L 150 161.71875 L 150 171.09375 L 140.625 171.09375 Z M 140.625 161.71875 "/>
<path style=" stroke:none;fill-rule:nonzero;fill:rgb(34.118652%,86.268616%,94.898987%);fill-opacity:1;" d="M 154.6875 161.71875 L 164.0625 161.71875 L 164.0625 171.09375 L 154.6875 171.09375 Z M 154.6875 161.71875 "/>
<path style=" stroke:none;fill-rule:nonzero;fill:rgb(34.118652%,86.268616%,94.898987%);fill-opacity:1;" d="M 168.75 161.71875 L 178.125 161.71875 L 178.125 171.09375 L 168.75 171.09375 Z M 168.75 161.71875 "/>
<path style=" stroke:none;fill-rule:nonzero;fill:rgb(34.118652%,86.268616%,94.898987%);fill-opacity:1;" d="M 182.8125 161.71875 L 192.1875 161.71875 L 192.1875 171.09375 L 182.8125 171.09375 Z M 182.8125 161.71875 "/>
<path style=" stroke:none;fill-rule:nonzero;fill:rgb(34.118652%,86.268616%,94.898987%);fill-opacity:1;" d="M 196.875 161.71875 L 206.25 161.71875 L 206.25 171.09375 L 196.875 171.09375 Z M 196.875 161.71875 "/>
<path style=" stroke:none;fill-rule:nonzero;fill:rgb(34.118652%,86.268616%,94.898987%);fill-opacity:1;" d="M 210.9375 161.71875 L 220.3125 161.71875 L 220.3125 171.09375 L 210.9375 171.09375 Z M 210.9375 161.71875 "/>
<path style=" stroke:none;fill-rule:nonzero;fill:rgb(34.118652%,86.268616%,94.898987%);fill-opacity:1;" d="M 225 161.71875 L 234.375 161.71875 L 234.375 171.09375 L 225 171.09375 Z M 225 161.71875 "/>
<path style=" stroke:none;fill-rule:nonzero;fill:rgb(34.118652%,86.268616%,94.898987%);fill-opacity:1;" d="M 239.0625 161.71875 L 248.4375 161.71875 L 248.4375 171.09375 L 239.0625 171.09375 Z M 239.0625 161.71875 "/>
<path style=" stroke:none;fill-rule:nonzero;fill:rgb(34.118652%,86.268616%,94.898987%);fill-opacity:1;" d="M 126.5625 175.78125 L 135.9375 175.78125 L 135.9375 185.15625 L 126.5625 185.15625 Z M 126.5625 175.78125 "/>
<path style=" stroke:none;fill-rule:nonzero;fill:rgb(34.118652%,86.268616%,94.898987%);fill-opacity:1;" d="M 140.625 175.78125 L 150 175.78125 L 150 185.15625 L 140.625 185.15625 Z M 140.625 175.78125 "/>
<path style=" stroke:none;fill-rule:nonzero;fill:rgb(100%,37.249756%,36.079407%);fill-opacity:1;" d="M 154.6875 175.78125 L 220.3125 175.78125 L 220.3125 185.15625 L 154.6875 185.15625 Z M 154.6875 175.78125 "/>
<path style=" stroke:none;fill-rule:nonzero;fill:rgb(34.118652%,86.268616%,94.898987%);fill-opacity:1;" d="M 225 175.78125 L 234.375 175.78125 L 234.375 185.15625 L 225 185.15625 Z M 225 175.78125 "/>
<path style=" stroke:none;fill-rule:nonzero;fill:rgb(34.118652%,86.268616%,94.898987%);fill-opacity:1;" d="M 239.0625 175.78125 L 248.4375 175.78125 L 248.4375 185.15625 L 239.0625 185.15625 Z M 239.0625 175.78125 "/>
<path style=" stroke:none;fill-rule:nonzero;fill:rgb(100%,37.249756%,36.079407%);fill-opacity:1;" d="M 133.59375 147.65625 L 142.96875 147.65625 L 142.96875 157.03125 L 133.59375 157.03125 Z M 133.59375 147.65625 "/>
<path style=" stroke:none;fill-rule:nonzero;fill:rgb(34.118652%,86.268616%,94.898987%);fill-opacity:1;" d="M 147.65625 147.65625 L 157.03125 147.65625 L 157.03125 157.03125 L 147.65625 157.03125 Z M 147.65625 147.65625 "/>
<path style=" stroke:none;fill-rule:nonzero;fill:rgb(34.118652%,86.268616%,94.898987%);fill-opacity:1;" d="M 161.71875 147.65625 L 171.09375 147.65625 L 171.09375 157.03125 L 161.71875 157.03125 Z M 161.71875 147.65625 "/>
<path style=" stroke:none;fill-rule:nonzero;fill:rgb(34.118652%,86.268616%,94.898987%);fill-opacity:1;" d="M 175.78125 147.65625 L 185.15625 147.65625 L 185.15625 157.03125 L 175.78125 157.03125 Z M 175.78125 147.65625 "/>
<path style=" stroke:none;fill-rule:nonzero;fill:rgb(34.118652%,86.268616%,94.898987%);fill-opacity:1;" d="M 189.84375 147.65625 L 199.21875 147.65625 L 199.21875 157.03125 L 189.84375 157.03125 Z M 189.84375 147.65625 "/>
<path style=" stroke:none;fill-rule:nonzero;fill:rgb(34.118652%,86.268616%,94.898987%);fill-opacity:1;" d="M 203.90625 147.65625 L 213.28125 147.65625 L 213.28125 157.03125 L 203.90625 157.03125 Z M 203.90625 147.65625 "/>
<path style=" stroke:none;fill-rule:nonzero;fill:rgb(34.118652%,86.268616%,94.898987%);fill-opacity:1;" d="M 217.96875 147.65625 L 227.34375 147.65625 L 227.34375 157.03125 L 217.96875 157.03125 Z M 217.96875 147.65625 "/>
<path style=" stroke:none;fill-rule:nonzero;fill:rgb(34.118652%,86.268616%,94.898987%);fill-opacity:1;" d="M 232.03125 147.65625 L 241.40625 147.65625 L 241.40625 157.03125 L 232.03125 157.03125 Z M 232.03125 147.65625 "/>
<path style="fill:none;stroke-width:2;stroke-linecap:butt;stroke-linejoin:round;stroke:rgb(20.388794%,18.818665%,23.919678%);stroke-opacity:1;stroke-miterlimit:10;" d="M 27.000003 35.000005 L 29.000003 35.000005 " transform="matrix(2.34375,0,0,2.34375,112.499997,112.499993)"/>
<path style="fill:none;stroke-width:2;stroke-linecap:butt;stroke-linejoin:round;stroke:rgb(20.388794%,18.818665%,23.919678%);stroke-opacity:1;stroke-miterlimit:10;" d="M 31.000003 35.000005 L 33.000003 35.000005 " transform="matrix(2.34375,0,0,2.34375,112.499997,112.499993)"/>
<path style="fill:none;stroke-width:2;stroke-linecap:butt;stroke-linejoin:round;stroke:rgb(20.388794%,18.818665%,23.919678%);stroke-opacity:1;stroke-miterlimit:10;" d="M 35.000004 35.000005 L 37.000004 35.000005 " transform="matrix(2.34375,0,0,2.34375,112.499997,112.499993)"/>
<path style=" stroke:none;fill-rule:nonzero;fill:rgb(100%,76.078796%,32.159424%);fill-opacity:1;" d="M 244.71875 186.53125 C 243.804688 185.613281 242.605469 185.15625 241.40625 185.15625 C 240.207031 185.15625 239.007812 185.613281 238.09375 186.53125 C 237.175781 187.445312 236.71875 188.644531 236.71875 189.84375 L 236.71875 185.15625 C 236.71875 183.957031 236.261719 182.757812 235.34375 181.84375 C 234.429688 180.925781 233.230469 180.46875 232.03125 180.46875 C 230.832031 180.46875 229.632812 180.925781 228.71875 181.84375 C 227.800781 182.757812 227.34375 183.957031 227.34375 185.15625 L 227.34375 180.46875 C 227.34375 179.269531 226.886719 178.070312 225.96875 177.15625 C 225.054688 176.238281 223.855469 175.78125 222.65625 175.78125 C 221.457031 175.78125 220.257812 176.238281 219.34375 177.15625 C 218.425781 178.070312 217.96875 179.269531 217.96875 180.46875 L 217.96875 185.15625 C 217.96875 183.957031 217.511719 182.757812 216.59375 181.84375 C 215.679688 180.925781 214.480469 180.46875 213.28125 180.46875 C 212.082031 180.46875 210.882812 180.925781 209.96875 181.84375 C 209.050781 182.757812 208.59375 183.957031 208.59375 185.15625 L 208.59375 205.664062 L 208.539062 205.667969 C 208.414062 204.671875 207.988281 203.703125 207.21875 202.9375 C 206.304688 202.019531 205.105469 201.5625 203.90625 201.5625 C 202.707031 201.5625 201.507812 202.019531 200.59375 202.9375 C 199.675781 203.851562 199.21875 205.050781 199.21875 206.25 L 199.21875 218.019531 C 199.21875 227.34375 210.9375 239.0625 210.9375 239.0625 L 210.9375 246.09375 L 239.0625 246.09375 L 239.0625 239.0625 L 246.09375 220.3125 L 246.09375 189.84375 C 246.09375 188.644531 245.636719 187.445312 244.71875 186.53125 Z M 244.71875 186.53125 "/>
<path style="fill:none;stroke-width:2;stroke-linecap:butt;stroke-linejoin:round;stroke:rgb(20.388794%,18.818665%,23.919678%);stroke-opacity:1;stroke-miterlimit:10;" d="M 45.000004 39.000006 L 45.000004 31.000005 C 45.000004 30.488338 44.805004 29.976672 44.413337 29.586672 C 44.023337 29.195005 43.511671 29.000005 43.000004 29.000005 C 42.488337 29.000005 41.976671 29.195005 41.586671 29.586672 C 41.195004 29.976672 41.000004 30.488338 41.000004 31.000005 L 41.000004 44.000006 " transform="matrix(2.34375,0,0,2.34375,112.499997,112.499993)"/>
<path style="fill:none;stroke-width:2;stroke-linecap:butt;stroke-linejoin:round;stroke:rgb(20.388794%,18.818665%,23.919678%);stroke-opacity:1;stroke-miterlimit:10;" d="M 49.000004 39.000006 L 49.000004 29.000005 C 49.000004 28.488338 48.805004 27.976672 48.413338 27.586672 C 48.023338 27.195005 47.511671 27.000005 47.000004 27.000005 C 46.488338 27.000005 45.976671 27.195005 45.586671 27.586672 C 45.195004 27.976672 45.000004 28.488338 45.000004 29.000005 L 45.000004 39.000006 " transform="matrix(2.34375,0,0,2.34375,112.499997,112.499993)"/>
<path style="fill:none;stroke-width:2;stroke-linecap:butt;stroke-linejoin:round;stroke:rgb(20.388794%,18.818665%,23.919678%);stroke-opacity:1;stroke-miterlimit:10;" d="M 53.000005 39.000006 L 53.000005 31.000005 C 53.000005 30.488338 52.805005 29.976672 52.413338 29.586672 C 52.023338 29.195005 51.511671 29.000005 51.000005 29.000005 C 50.488338 29.000005 49.976671 29.195005 49.586671 29.586672 C 49.195004 29.976672 49.000004 30.488338 49.000004 31.000005 L 49.000004 39.000006 " transform="matrix(2.34375,0,0,2.34375,112.499997,112.499993)"/>
<path style="fill:none;stroke-width:2;stroke-linecap:butt;stroke-linejoin:round;stroke:rgb(20.388794%,18.818665%,23.919678%);stroke-opacity:1;stroke-miterlimit:10;" d="M 54.000005 57.000007 L 54.000005 54.000007 L 57.000005 46.000006 L 57.000005 33.000005 C 57.000005 32.488339 56.805005 31.976672 56.413338 31.586672 C 56.023338 31.195005 55.511672 31.000005 55.000005 31.000005 C 54.488338 31.000005 53.976671 31.195005 53.586671 31.586672 C 53.195005 31.976672 53.000005 32.488339 53.000005 33.000005 L 53.000005 39.000006 " transform="matrix(2.34375,0,0,2.34375,112.499997,112.499993)"/>
<path style="fill:none;stroke-width:2;stroke-linecap:butt;stroke-linejoin:round;stroke:rgb(20.388794%,18.818665%,23.919678%);stroke-opacity:1;stroke-miterlimit:10;" d="M 41.000004 40.000006 C 41.000004 39.488339 40.805004 38.976672 40.413337 38.586672 C 40.023337 38.195006 39.51167 38.000006 39.000004 38.000006 C 38.488337 38.000006 37.97667 38.195006 37.58667 38.586672 C 37.195004 38.976672 37.000004 39.488339 37.000004 40.000006 L 37.000004 45.021673 C 37.000004 49.000006 42.000004 54.000007 42.000004 54.000007 L 42.000004 57.000007 " transform="matrix(2.34375,0,0,2.34375,112.499997,112.499993)"/>
<g clip-path="url(#clip2)" clip-rule="nonzero">
<path style="fill:none;stroke-width:2;stroke-linecap:butt;stroke-linejoin:round;stroke:rgb(20.388794%,18.818665%,23.919678%);stroke-opacity:1;stroke-miterlimit:10;" d="M 55.000005 64.000007 L 55.000005 58.000007 C 55.000005 57.74334 54.901672 57.48834 54.706671 57.29334 C 54.511671 57.09834 54.256671 57.000007 54.000005 57.000007 L 42.000004 57.000007 C 41.743337 57.000007 41.488337 57.09834 41.293337 57.29334 C 41.098337 57.48834 41.000004 57.74334 41.000004 58.000007 L 41.000004 64.000007 " transform="matrix(2.34375,0,0,2.34375,112.499997,112.499993)"/>
</g>
<path style="fill:none;stroke-width:2;stroke-linecap:butt;stroke-linejoin:round;stroke:rgb(20.388794%,18.818665%,23.919678%);stroke-opacity:1;stroke-miterlimit:10;" d="M 44.000004 61.000007 L 46.000004 61.000007 " transform="matrix(2.34375,0,0,2.34375,112.499997,112.499993)"/>
<path style=" stroke:none;fill-rule:nonzero;fill:rgb(100%,76.078796%,32.159424%);fill-opacity:1;" d="M 130.28125 186.53125 C 131.195312 185.613281 132.394531 185.15625 133.59375 185.15625 C 134.792969 185.15625 135.992188 185.613281 136.90625 186.53125 C 137.824219 187.445312 138.28125 188.644531 138.28125 189.84375 L 138.28125 185.15625 C 138.28125 183.957031 138.738281 182.757812 139.65625 181.84375 C 140.570312 180.925781 141.769531 180.46875 142.96875 180.46875 C 144.167969 180.46875 145.367188 180.925781 146.28125 181.84375 C 147.199219 182.757812 147.65625 183.957031 147.65625 185.15625 L 147.65625 180.46875 C 147.65625 179.269531 148.113281 178.070312 149.03125 177.15625 C 149.945312 176.238281 151.144531 175.78125 152.34375 175.78125 C 153.542969 175.78125 154.742188 176.238281 155.65625 177.15625 C 156.574219 178.070312 157.03125 179.269531 157.03125 180.46875 L 157.03125 185.15625 C 157.03125 183.957031 157.488281 182.757812 158.40625 181.84375 C 159.320312 180.925781 160.519531 180.46875 161.71875 180.46875 C 162.917969 180.46875 164.117188 180.925781 165.03125 181.84375 C 165.949219 182.757812 166.40625 183.957031 166.40625 185.15625 L 166.40625 205.664062 L 166.460938 205.667969 C 166.585938 204.671875 167.011719 203.703125 167.78125 202.9375 C 168.695312 202.019531 169.894531 201.5625 171.09375 201.5625 C 172.292969 201.5625 173.492188 202.019531 174.40625 202.9375 C 175.324219 203.851562 175.78125 205.050781 175.78125 206.25 L 175.78125 218.019531 C 175.78125 227.34375 164.0625 239.0625 164.0625 239.0625 L 164.0625 246.09375 L 135.9375 246.09375 L 135.9375 239.0625 L 128.90625 220.3125 L 128.90625 189.84375 C 128.90625 188.644531 129.363281 187.445312 130.28125 186.53125 Z M 130.28125 186.53125 "/>
<path style="fill:none;stroke-width:2;stroke-linecap:butt;stroke-linejoin:round;stroke:rgb(20.388794%,18.818665%,23.919678%);stroke-opacity:1;stroke-miterlimit:10;" d="M 19.000002 39.000006 L 19.000002 31.000005 C 19.000002 30.488338 19.195002 29.976672 19.586669 29.586672 C 19.976669 29.195005 20.488336 29.000005 21.000003 29.000005 C 21.511669 29.000005 22.023336 29.195005 22.413336 29.586672 C 22.805003 29.976672 23.000003 30.488338 23.000003 31.000005 L 23.000003 44.000006 " transform="matrix(2.34375,0,0,2.34375,112.499997,112.499993)"/>
<path style="fill:none;stroke-width:2;stroke-linecap:butt;stroke-linejoin:round;stroke:rgb(20.388794%,18.818665%,23.919678%);stroke-opacity:1;stroke-miterlimit:10;" d="M 15.000002 39.000006 L 15.000002 29.000005 C 15.000002 28.488338 15.195002 27.976672 15.586669 27.586672 C 15.976669 27.195005 16.488336 27.000005 17.000002 27.000005 C 17.511669 27.000005 18.023336 27.195005 18.413336 27.586672 C 18.805002 27.976672 19.000002 28.488338 19.000002 29.000005 L 19.000002 39.000006 " transform="matrix(2.34375,0,0,2.34375,112.499997,112.499993)"/>
<path style="fill:none;stroke-width:2;stroke-linecap:butt;stroke-linejoin:round;stroke:rgb(20.388794%,18.818665%,23.919678%);stroke-opacity:1;stroke-miterlimit:10;" d="M 11.000002 39.000006 L 11.000002 31.000005 C 11.000002 30.488338 11.195002 29.976672 11.586669 29.586672 C 11.976669 29.195005 12.488335 29.000005 13.000002 29.000005 C 13.511669 29.000005 14.023335 29.195005 14.413336 29.586672 C 14.805002 29.976672 15.000002 30.488338 15.000002 31.000005 L 15.000002 39.000006 " transform="matrix(2.34375,0,0,2.34375,112.499997,112.499993)"/>
<path style="fill:none;stroke-width:2;stroke-linecap:butt;stroke-linejoin:round;stroke:rgb(20.388794%,18.818665%,23.919678%);stroke-opacity:1;stroke-miterlimit:10;" d="M 10.000002 57.000007 L 10.000002 54.000007 L 7.000002 46.000006 L 7.000002 33.000005 C 7.000002 32.488339 7.195002 31.976672 7.586668 31.586672 C 7.976668 31.195005 8.488335 31.000005 9.000002 31.000005 C 9.511669 31.000005 10.023335 31.195005 10.413335 31.586672 C 10.805002 31.976672 11.000002 32.488339 11.000002 33.000005 L 11.000002 39.000006 " transform="matrix(2.34375,0,0,2.34375,112.499997,112.499993)"/>
<path style="fill:none;stroke-width:2;stroke-linecap:butt;stroke-linejoin:round;stroke:rgb(20.388794%,18.818665%,23.919678%);stroke-opacity:1;stroke-miterlimit:10;" d="M 23.000003 40.000006 C 23.000003 39.488339 23.195003 38.976672 23.586669 38.586672 C 23.976669 38.195006 24.488336 38.000006 25.000003 38.000006 C 25.51167 38.000006 26.023336 38.195006 26.413336 38.586672 C 26.805003 38.976672 27.000003 39.488339 27.000003 40.000006 L 27.000003 45.021673 C 27.000003 49.000006 22.000003 54.000007 22.000003 54.000007 L 22.000003 57.000007 " transform="matrix(2.34375,0,0,2.34375,112.499997,112.499993)"/>
<g clip-path="url(#clip3)" clip-rule="nonzero">
<path style="fill:none;stroke-width:2;stroke-linecap:butt;stroke-linejoin:round;stroke:rgb(20.388794%,18.818665%,23.919678%);stroke-opacity:1;stroke-miterlimit:10;" d="M 9.000002 64.000007 L 9.000002 58.000007 C 9.000002 57.74334 9.098335 57.48834 9.293335 57.29334 C 9.488335 57.09834 9.743335 57.000007 10.000002 57.000007 L 22.000003 57.000007 C 22.256669 57.000007 22.511669 57.09834 22.706669 57.29334 C 22.901669 57.48834 23.000003 57.74334 23.000003 58.000007 L 23.000003 64.000007 " transform="matrix(2.34375,0,0,2.34375,112.499997,112.499993)"/>
</g>
<path style="fill:none;stroke-width:2;stroke-linecap:butt;stroke-linejoin:round;stroke:rgb(20.388794%,18.818665%,23.919678%);stroke-opacity:1;stroke-miterlimit:10;" d="M 20.000003 61.000007 L 18.000002 61.000007 " transform="matrix(2.34375,0,0,2.34375,112.499997,112.499993)"/>
<g clip-path="url(#clip4)" clip-rule="nonzero">
<path style="fill:none;stroke-width:2;stroke-linecap:butt;stroke-linejoin:round;stroke:rgb(20.388794%,18.818665%,23.919678%);stroke-opacity:1;stroke-miterlimit:10;" d="M 38.000004 0.000003152 L 38.000004 1.000003 C 38.000004 1.51167 37.805004 2.023337 37.413337 2.413337 C 37.023337 2.805003 36.51167 3.000003 36.000004 3.000003 L 24.000003 3.000003 C 23.488336 3.000003 22.976669 3.195003 22.586669 3.58667 C 22.195003 3.97667 22.000003 4.488337 22.000003 5.000003 C 22.000003 5.51167 22.195003 6.023337 22.586669 6.413337 C 22.976669 6.805004 23.488336 7.000004 24.000003 7.000004 L 30.000003 7.000004 C 30.51167 7.000004 31.023337 7.195004 31.413337 7.58667 C 31.805003 7.97667 32.000003 8.488337 32.000003 9.000004 L 32.000003 11.000004 " transform="matrix(2.34375,0,0,2.34375,112.499997,112.499993)"/>
</g>
<path style="fill:none;stroke-width:1.586957;stroke-linecap:butt;stroke-linejoin:miter;stroke:rgb(0%,0%,0%);stroke-opacity:1;stroke-miterlimit:4;" d="M 23.518233 -2.334995 C 23.21615 -3.449578 22.606775 -4.090203 21.679692 -4.25687 C 20.580733 -4.449578 19.59115 -4.25687 18.705733 -3.678745 C 17.825525 -3.074578 17.3724 -2.282911 17.34115 -1.303745 L 17.138025 3.305631 L 16.950525 7.888964 C 16.924483 8.633756 16.6224 9.222298 16.044275 9.644173 C 15.117191 10.295215 14.018233 10.727506 12.736983 10.946256 C 12.226566 11.045215 11.643233 11.112923 10.981774 11.15459 L 9.205733 11.21709 C 8.971358 11.21709 8.825524 11.128548 8.768233 10.946256 L 8.726566 10.680631 L 8.726566 10.409798 L 8.684899 7.993131 C 8.674483 7.029589 8.632816 6.232714 8.565108 5.597298 L 8.148441 1.612922 L 7.653649 -2.376661 L 7.528649 -3.491245 C 7.486982 -3.918328 7.414066 -4.262078 7.304691 -4.527703 C 7.028649 -5.22562 6.434899 -5.63187 5.528649 -5.746453 L 4.367191 -5.866245 L 3.21094 -5.928745 C 2.346357 -5.902703 1.61719 -5.652703 1.02344 -5.183953 C 0.445315 -4.730828 0.174482 -4.189161 0.216149 -3.553745 C 0.36719 -1.308953 0.440107 1.555631 0.424482 5.040006 L 0.403649 9.316048 L 0.424482 13.612923 L 0.528649 18.90459 L 0.570315 24.211882 C 0.539065 28.180632 0.382815 31.701466 0.0911486 34.790008 C 0.049482 35.269174 0.184899 35.62855 0.486982 35.862925 C 0.80469 36.0973 1.138024 36.081675 1.497399 35.821258 C 1.981774 35.477508 2.653649 35.388966 3.523441 35.555633 C 4.997399 35.842091 5.966149 35.362924 6.434899 34.107716 C 6.919274 32.852508 7.242191 31.654591 7.408857 30.513966 C 7.752607 28.034799 8.013024 25.222299 8.190107 22.081674 L 8.377608 17.868132 L 8.544274 13.65459 C 8.554691 12.96709 8.919274 12.65459 9.638024 12.727506 L 11.164066 12.909798 L 12.695316 13.055631 C 13.867191 13.138965 14.882816 13.034798 15.752608 12.743131 C 16.27865 12.566048 16.549483 12.800423 16.580733 13.446256 L 16.705733 16.133757 L 16.846358 18.800423 L 16.846358 22.701465 C 16.888025 24.206674 17.033858 25.493132 17.283858 26.566049 L 17.325525 26.816049 L 17.361983 27.102507 C 17.419275 27.295216 17.523441 27.362924 17.674483 27.310841 C 17.84115 27.243132 18.044275 27.191049 18.294275 27.165007 L 18.914067 27.102507 C 19.424483 27.034799 19.8099 26.842091 20.070317 26.524382 C 20.3724 26.138966 20.757817 25.930632 21.226567 25.904591 C 22.2474 25.852507 22.882817 25.31084 23.127608 24.295215 C 23.52865 22.571257 23.851567 20.451465 24.101567 17.930632 L 24.554692 12.847298 C 24.690109 10.977506 24.757817 9.290006 24.757817 7.790006 C 24.773442 4.029589 24.361984 0.654589 23.518233 -2.334995 Z M 44.481777 20.800424 C 44.31511 23.128549 43.143235 24.727507 40.97136 25.597299 C 40.486985 25.790007 40.075526 25.779591 39.731776 25.576466 C 39.466151 25.409799 39.247401 25.118132 39.070318 24.706674 C 38.132818 22.56084 37.841151 20.477507 38.200526 18.46709 C 38.268234 18.02959 38.315109 17.472298 38.346359 16.795215 L 38.367193 15.946257 L 38.408859 15.12334 C 38.450526 14.388965 38.611984 13.477506 38.903651 12.37334 L 39.273443 11.050423 L 39.585943 9.706673 C 39.789068 8.592089 40.40886 7.711881 41.445318 7.066048 C 42.19011 6.597298 43.184901 6.232714 44.44011 5.967089 C 45.184902 5.816048 45.575527 6.243131 45.617193 7.248339 C 45.549485 8.930631 45.382818 11.159798 45.122402 13.946256 L 44.789068 17.352507 Z M 53.820319 16.774382 C 53.84636 15.409798 53.638027 13.87334 53.200527 12.165006 L 52.539069 9.956673 L 51.835944 7.769173 C 51.544277 6.873339 51.268235 6.191048 51.007819 5.722298 C 50.580735 4.977506 50.03386 4.404589 49.356777 4.008756 C 48.460943 3.482714 47.669277 3.274381 46.981777 3.388964 C 46.263027 3.498339 45.851568 3.935839 45.742193 4.706672 C 45.674485 5.274381 45.361985 5.441048 44.809902 5.206673 C 43.216151 4.545214 41.299485 4.706672 39.070318 5.701464 C 35.429693 7.310839 32.934901 10.388965 31.570317 14.93584 C 29.794276 20.800424 30.528651 25.362924 33.778651 28.612924 C 35.486984 30.321257 36.898443 31.316049 38.013026 31.607716 C 39.679693 32.034799 41.575526 31.378549 43.695318 29.644174 L 43.861985 29.519174 C 43.914068 29.477507 43.955735 29.467091 43.986985 29.477507 C 44.106777 29.519174 44.179693 29.602507 44.19011 29.727507 L 44.19011 29.894174 L 44.169277 30.034799 L 43.882818 35.347299 C 43.841151 35.951466 44.03386 36.461883 44.460943 36.873341 C 44.888027 37.290008 45.398443 37.4723 45.986985 37.435841 L 46.585943 37.352508 L 47.205735 37.269175 C 47.69011 37.211883 48.101568 37.2223 48.445318 37.290008 C 49.330735 37.467091 50.236985 37.274383 51.174485 36.711883 C 52.09636 36.133758 52.674485 35.415008 52.90886 34.560841 L 53.242194 33.258758 C 53.335944 32.779591 53.398444 32.342091 53.424485 31.956674 C 53.757819 26.763966 53.888027 21.706674 53.820319 16.774382 Z M 58.434902 9.482714 C 58.382819 8.670214 58.299486 7.982714 58.190111 7.415006 C 58.091152 6.862923 58.257819 6.472298 58.684902 6.237923 C 58.851569 6.154589 59.049486 6.086881 59.283861 6.029589 L 59.575528 5.987923 L 59.841153 5.946256 L 60.335944 5.868131 L 60.856778 5.763964 C 61.268236 5.696256 61.611986 5.659798 61.888028 5.659798 C 62.674486 5.685839 63.294278 6.029589 63.747403 6.691048 C 63.841153 6.842089 63.955736 6.862923 64.075528 6.753548 L 64.221361 6.566048 L 64.346361 6.404589 C 65.997403 4.805631 67.752611 4.040006 69.611987 4.107714 C 70.591153 4.149381 71.471362 4.592089 72.25782 5.430631 C 74.835945 8.185839 75.830737 11.326465 75.252612 14.852506 C 75.22657 15.086881 75.127612 15.237923 74.966154 15.305632 C 74.674487 15.415007 74.236987 15.305632 73.643237 14.977506 C 73.075528 14.675423 72.705737 14.378548 72.528653 14.086881 C 72.07032 13.347298 71.611987 12.243131 71.143237 10.784798 L 70.606778 9.086881 C 70.372403 8.456673 70.13282 7.909798 69.88282 7.456673 C 69.19532 6.159798 68.13282 5.618131 66.700528 5.826464 C 66.25782 5.878548 65.825528 6.326464 65.398445 7.170214 C 64.986986 7.993131 64.856778 8.654589 65.00782 9.149381 C 66.247403 12.96709 66.898445 16.862923 66.971361 20.84209 L 67.033861 22.659799 L 67.091153 24.461882 C 67.106778 25.862924 67.054695 27.071257 66.929695 28.076466 C 66.804695 29.040007 66.585945 29.743132 66.268236 30.180632 C 66.059903 30.456674 65.903653 30.831674 65.794278 31.295216 L 65.648445 31.878549 L 65.502611 32.477508 C 65.294278 33.123341 64.950528 33.336883 64.471361 33.118133 C 64.221361 32.993133 63.914069 32.894174 63.539069 32.826466 L 62.549486 32.638966 C 61.747403 32.477508 61.127611 32.201466 60.690111 31.816049 C 60.236986 31.415008 59.960944 30.769174 59.861986 29.873341 C 59.585944 27.404591 59.330736 24.357715 59.096361 20.722299 L 58.830736 16.15459 L 58.539069 11.566048 Z M 79.627612 20.305632 C 79.736987 19.524382 79.804696 18.597298 79.835946 17.540007 L 79.872404 16.071257 L 79.872404 14.602506 C 79.888029 12.003548 80.028654 9.972298 80.289071 8.508756 L 80.309904 8.118131 L 80.309904 7.727506 C 80.361987 7.092089 80.679696 6.842089 81.257821 6.982714 C 81.424487 7.034798 81.653654 7.071256 81.940112 7.086881 L 82.643237 7.170214 C 83.195321 7.237923 83.611987 7.451464 83.903654 7.805631 C 84.372404 8.347298 84.638029 8.852506 84.710946 9.336881 L 85.018238 11.21709 L 85.309904 13.097298 C 85.502613 14.513965 85.591154 15.790007 85.575529 16.920215 C 85.549488 20.237923 85.841154 22.956674 86.445321 25.081674 C 86.570321 25.503549 86.653654 26.045216 86.690113 26.691049 L 86.731779 27.477507 L 86.815113 28.279591 C 86.940113 29.206674 86.460946 29.987924 85.372404 30.638966 C 85.039071 30.842091 84.544279 30.857716 83.882821 30.675424 C 83.236987 30.498341 82.705737 30.211882 82.294279 29.810841 C 81.700529 29.243132 81.122404 28.211882 80.554696 26.711882 C 80.085946 25.487924 79.778654 23.352507 79.627612 20.305632 Z M 82.851571 4.149381 C 82.200529 4.138964 81.632821 3.842089 81.132821 3.263964 C 80.653654 2.696256 80.455737 2.092089 80.533862 1.446256 C 80.632821 0.659797 81.013029 0.258756 81.674487 0.248339 L 82.210946 0.248339 C 82.414071 0.248339 82.596362 0.274381 82.747404 0.331672 C 83.117196 0.451464 83.372404 0.717089 83.513029 1.112922 L 83.841154 2.086881 L 84.153654 3.076464 C 84.205737 3.295214 84.080737 3.529589 83.778654 3.779589 C 83.476571 4.029589 83.164071 4.149381 82.851571 4.149381 Z M 113.382823 22.227507 C 113.283864 23.451465 113.242198 24.571257 113.257823 25.576466 C 113.268239 26.967091 113.372406 28.237924 113.565114 29.399382 C 113.815114 30.899383 113.127614 32.404591 111.502614 33.920216 C 110.976573 34.415008 110.372406 34.581674 109.684906 34.415008 C 109.408864 34.347299 109.226572 34.175424 109.143239 33.899383 L 109.065114 33.529591 L 109.023447 33.154591 C 108.856781 32.263966 108.799489 31.201466 108.856781 29.977507 L 108.981781 28.383757 L 109.085947 26.795216 C 109.179697 25.37334 109.153656 23.487924 109.002614 21.133757 L 108.835947 18.300423 L 108.752614 15.451465 L 108.773447 13.180631 L 108.773447 10.90459 C 108.757822 9.159798 108.664072 7.644173 108.481781 6.362923 L 108.341156 5.638964 C 107.997406 3.998339 106.914072 3.477506 105.096364 4.071256 L 104.950531 4.149381 L 104.783864 4.232714 C 104.664072 4.290006 104.54428 4.284797 104.434905 4.211881 L 104.705739 3.987922 L 104.992197 3.800422 L 105.486989 3.633756 L 105.986989 3.508756 C 105.653656 3.430631 105.226572 3.477506 104.705739 3.654589 C 103.382822 4.107714 102.289072 5.034797 101.41928 6.425423 C 101.20053 6.769173 101.164072 7.206673 101.315114 7.748339 L 101.54428 8.409798 L 101.747405 9.066048 C 102.835947 13.805631 102.773447 18.868132 101.565114 24.253549 C 101.424489 24.857715 101.361989 25.352507 101.377614 25.737924 C 101.476572 27.310841 100.601572 29.045216 98.752613 30.946258 C 98.091155 31.633758 97.51303 32.123341 97.018238 32.415008 C 96.440113 32.743133 95.898447 32.758758 95.38803 32.456674 L 94.148446 31.732716 L 92.867196 31.029591 C 92.216155 30.696258 91.820321 30.170216 91.66928 29.435841 C 91.611988 29.206674 91.580738 28.878549 91.565113 28.467091 L 91.523446 27.519174 C 91.247405 24.52959 91.23178 20.665007 91.48178 15.925423 L 91.809905 10.165006 C 91.934905 7.920214 91.997405 5.987923 91.997405 4.378547 C 91.997405 3.003547 92.252613 2.154589 92.76303 1.836881 C 93.205738 1.560839 94.278655 1.472297 95.986988 1.571256 C 96.992197 1.623339 97.809905 1.925422 98.445322 2.477506 C 98.690113 2.696256 98.940113 2.972297 99.190113 3.305631 L 99.830739 4.253547 C 100.174489 4.790006 100.486989 5.060839 100.778655 5.060839 C 101.028655 5.060839 101.35678 4.826464 101.768239 4.357714 C 102.773447 3.201464 104.289072 2.628547 106.315114 2.644172 C 108.039072 2.644172 109.299489 3.013964 110.096364 3.758756 C 110.757823 4.378547 111.299489 5.493131 111.726573 7.107714 C 112.622406 10.59209 113.174489 15.628548 113.382823 22.227507 Z M 127.627615 21.836882 L 127.669282 19.420215 L 127.752615 17.024382 C 127.778657 16.347298 127.466157 16.112923 126.820324 16.321257 C 125.83074 16.649382 124.76824 17.18584 123.638032 17.930632 C 122.898448 18.415007 122.476573 18.93584 122.377615 19.503548 C 122.091157 21.112924 122.007823 22.461882 122.132823 23.550424 C 122.367198 25.576466 123.460948 26.373341 125.414074 25.946257 L 125.914074 25.821257 L 126.388032 25.680632 C 127.117199 25.498341 127.48699 25.02959 127.502615 24.274382 L 127.669282 21.836882 Z M 134.981782 17.290007 C 134.981782 19.300423 135.049491 21.62334 135.190116 24.253549 C 135.408866 28.451466 134.830741 31.878549 133.450532 34.519174 L 133.164074 35.159799 L 132.872407 35.821258 C 132.611991 36.331675 132.372407 36.779591 132.153657 37.165008 C 131.835949 37.675425 131.523449 38.107716 131.221366 38.467091 C 130.424491 39.373341 129.622407 39.758758 128.825532 39.623341 C 128.507824 39.56605 128.252615 39.154591 128.059907 38.383758 C 127.882824 37.638966 127.86199 37.040008 127.997407 36.586883 C 128.070324 36.310841 128.01824 35.987925 127.856782 35.612925 L 127.627615 35.180633 C 127.559907 35.003549 127.523449 34.842091 127.523449 34.706674 L 127.377615 32.847299 L 127.23699 30.987924 C 127.221365 30.628549 127.028657 30.493132 126.653657 30.576466 C 125.14324 30.878549 123.528657 30.415007 121.820323 29.191049 C 120.14324 27.977507 119.148448 26.586882 118.846365 25.019174 C 118.325531 22.399382 118.690115 20.388965 119.940115 18.982715 C 121.789073 16.920215 124.117198 15.49834 126.92449 14.727506 C 127.51824 14.566048 127.825532 14.18584 127.856782 13.59209 C 128.085949 8.925423 128.320324 4.638964 128.554699 0.743131 C 128.596365 0.123339 129.013032 -0.459995 129.794282 -1.012078 C 130.565116 -1.564161 131.341157 -1.81937 132.111991 -1.777703 C 132.783866 -1.751661 133.351574 -1.53812 133.804699 -1.137078 C 134.257824 -0.736036 134.476574 -0.246453 134.466157 0.331672 C 134.440116 0.836881 134.460949 1.446256 134.528657 2.149381 L 134.632824 3.055631 L 134.731782 3.967089 C 135.190116 8.566048 135.273449 13.008756 134.981782 17.290007 Z M 139.789074 17.805632 C 139.690116 16.665007 139.747408 15.243131 139.955741 13.550423 L 140.263033 11.34209 L 140.575533 9.107714 C 140.58595 8.987923 140.575533 8.842089 140.533866 8.675423 L 140.4297 8.243131 C 140.346366 7.899381 140.403658 7.602506 140.596366 7.352506 C 140.89845 6.982714 141.278658 6.743131 141.731783 6.628548 C 142.127616 6.519173 142.528658 6.529589 142.9297 6.649381 C 143.893241 6.941048 144.466158 7.696256 144.643241 8.925423 L 145.1172 11.795215 L 145.611992 14.644173 C 146.002617 16.920215 146.200533 18.847298 146.216158 20.430632 C 146.226575 22.24834 146.481783 24.368132 146.976575 26.795216 C 147.278658 28.185841 147.9922 29.102507 149.106783 29.540007 C 150.013033 29.915007 150.877617 29.763966 151.690117 29.086882 C 152.486992 28.409799 152.888034 27.519174 152.888034 26.399382 C 152.872409 24.956674 152.908867 23.300424 152.9922 21.441049 L 153.257825 16.482715 L 153.549492 11.836881 L 153.856784 7.170214 C 153.872409 6.795214 154.018242 6.560839 154.289075 6.467089 C 155.1172 6.191048 155.997409 6.263964 156.934909 6.691048 C 157.966159 7.159798 158.570326 7.904589 158.731784 8.925423 L 158.815117 9.831673 L 158.919284 10.763965 C 159.028659 11.477506 159.299492 12.045215 159.726576 12.456673 C 159.794284 12.513965 159.825534 12.628548 159.825534 12.805631 L 159.825534 13.222298 C 159.773451 14.99834 159.882826 17.24834 160.158867 19.977507 L 160.507826 23.34209 L 160.799493 26.711882 L 160.945326 29.045216 L 161.028659 31.378549 C 161.028659 33.128549 160.867201 34.670216 160.549492 36.008758 C 160.356784 36.831675 159.731784 37.706675 158.669284 38.633758 C 158.132826 39.0973 157.622409 39.310841 157.143242 39.274383 C 156.950534 39.243133 156.736992 39.180633 156.502617 39.086883 L 156.148451 38.94105 L 155.799492 38.75355 L 155.4297 38.550425 L 155.075534 38.321258 C 153.507825 37.31605 152.726575 35.394174 152.7422 32.555633 C 152.7422 31.816049 152.6797 31.399383 152.5547 31.316049 C 152.4297 31.222299 152.044284 31.305633 151.39845 31.566049 C 149.841158 32.185841 148.3047 31.993133 146.794283 30.987924 C 146.445325 30.753549 146.028658 30.519174 145.533867 30.284799 L 144.21095 29.665007 C 142.502616 28.852507 141.33595 27.545216 140.716158 25.737924 C 140.085949 23.909799 139.773449 21.263965 139.789074 17.805632 Z M 165.419284 7.847298 C 165.242201 6.581673 165.190118 4.883756 165.273451 2.748339 L 165.398451 0.144172 C 165.440118 -0.861036 165.445326 -1.736036 165.419284 -2.480828 C 165.403659 -2.892286 165.591159 -3.183953 165.976576 -3.345411 C 166.294285 -3.486036 166.632826 -3.512078 166.986993 -3.428745 C 168.299493 -3.116245 169.304701 -2.532911 170.002618 -1.69437 C 170.955743 -0.564161 171.664077 0.878547 172.132827 2.644172 C 172.299493 3.263964 172.460952 4.050422 172.627618 4.998339 L 172.835952 6.175423 L 173.065118 7.352506 C 173.257827 8.316048 173.414077 9.435839 173.539077 10.701465 L 173.783868 14.066048 C 173.856785 15.222298 173.815118 16.888965 173.664077 19.066048 L 173.49741 21.566049 C 173.455743 22.503549 173.450535 23.336882 173.476577 24.066049 C 173.601577 26.503549 173.523452 29.237924 173.24741 32.269174 C 173.179702 33.097299 172.77866 33.857716 172.049493 34.560841 C 171.304702 35.248341 170.52866 35.5973 169.71616 35.5973 C 169.523451 35.5973 169.351576 35.482716 169.200535 35.263966 C 168.580743 34.357716 168.205743 33.513966 168.085951 32.743133 L 167.627618 30.097299 L 167.15366 27.435841 C 166.783868 25.34209 166.518243 23.571257 166.367201 22.12334 C 165.789076 16.737923 165.471368 11.982715 165.419284 7.847298 Z M 193.820328 29.581674 C 193.242203 28.508757 192.601578 27.253549 191.898453 25.821257 L 190.039078 22.040007 L 189.460953 20.821257 L 188.903661 19.602507 C 188.450536 18.670215 188.002619 17.888965 187.559911 17.269173 C 187.299494 16.925423 187.315119 16.540007 187.601578 16.112923 C 188.195328 15.243131 189.054703 14.24834 190.184911 13.118131 L 191.591161 11.732715 C 192.12762 11.196256 192.580745 10.727506 192.955745 10.326465 C 193.299495 9.941048 193.388036 9.586881 193.22137 9.253548 C 192.861995 9.362923 192.476578 9.576464 192.06512 9.894173 L 191.549495 10.305631 L 191.054703 10.722298 C 189.013036 12.27959 187.205744 13.925423 185.617202 15.659798 L 185.455744 15.84209 L 185.268244 16.008757 C 185.117202 16.149382 185.007827 16.201465 184.940119 16.175423 C 184.815119 16.133757 184.752619 16.019173 184.752619 15.826465 L 184.752619 15.347298 L 184.690119 13.758756 L 184.606786 12.144173 C 184.398452 9.076464 184.091161 6.706673 183.679702 5.040006 L 183.617202 4.727506 L 183.513036 4.441047 C 183.403661 4.232714 183.257827 4.102506 183.080744 4.050422 L 182.190119 3.758756 L 181.299494 3.451464 C 180.601577 3.217089 179.986994 3.123339 179.460952 3.180631 L 179.007827 3.222297 C 178.84116 3.248339 178.705744 3.284797 178.596369 3.326464 C 178.27866 3.461881 178.106785 3.763964 178.080744 4.232714 C 178.039077 4.701464 178.05991 5.274381 178.143244 5.946256 L 178.221369 6.795214 L 178.304702 7.644173 C 178.486994 10.165006 178.55991 12.99834 178.533869 16.15459 L 178.450535 20.430632 L 178.325535 24.68584 L 178.179702 28.800424 L 178.05991 32.930633 C 178.05991 33.524383 178.132827 33.946258 178.283869 34.211883 C 178.507827 34.607716 178.924494 34.790008 179.544285 34.748341 C 179.643244 34.732716 179.757827 34.763966 179.898452 34.831674 L 180.24741 35.013966 C 182.216161 35.925425 183.429702 35.388966 183.882827 33.404591 C 184.419286 31.024383 184.710952 28.857716 184.752619 26.920216 L 184.835952 24.87334 L 184.940119 22.826465 C 185.018244 21.175424 185.028661 19.805632 184.960952 18.71709 L 184.960952 18.383757 C 184.971369 18.263965 185.033869 18.191048 185.143244 18.180632 C 185.242202 18.165007 185.315119 18.211882 185.372411 18.321257 L 185.414077 18.487923 L 185.476577 18.633757 L 186.507828 21.237924 L 187.559911 23.821257 C 188.414078 25.790007 189.278661 27.441049 190.143244 28.779591 L 190.679703 29.706674 L 191.195328 30.654591 C 191.622411 31.373341 192.106786 31.894174 192.643245 32.227508 L 192.992203 32.415008 L 193.34637 32.555633 C 193.632828 32.638966 193.841161 32.586883 193.966161 32.394174 C 194.445328 31.623341 194.398453 30.685841 193.820328 29.581674 Z M 193.820328 29.581674 " transform="matrix(0.75,0,0,0.75,112.927732,81.063746)"/>
<g clip-path="url(#clip5)" clip-rule="nonzero">
<path style=" stroke:none;fill-rule:nonzero;fill:rgb(0%,0%,0%);fill-opacity:1;" d="M 172.230469 235.3125 L 172.230469 254.683594 L 203.164062 254.683594 L 203.164062 235.3125 Z M 174.441406 237.464844 L 200.953125 237.464844 L 200.953125 252.53125 L 174.441406 252.53125 Z M 176.648438 239.617188 L 176.648438 250.378906 L 179.964844 250.378906 C 181.792969 250.378906 183.277344 248.929688 183.277344 247.148438 L 183.277344 242.84375 C 183.277344 241.066406 181.792969 239.617188 179.964844 239.617188 Z M 187.699219 239.617188 C 186.480469 239.617188 185.488281 240.582031 185.488281 241.769531 L 185.488281 248.226562 C 185.488281 249.414062 186.480469 250.378906 187.699219 250.378906 L 189.90625 250.378906 L 189.90625 248.226562 L 187.699219 248.226562 L 187.699219 246.074219 L 189.90625 246.074219 L 189.90625 243.921875 L 187.699219 243.921875 L 187.699219 241.769531 L 189.90625 241.769531 L 189.90625 239.617188 Z M 191.777344 239.617188 L 194.078125 249.328125 C 194.222656 249.941406 194.785156 250.378906 195.429688 250.378906 C 196.078125 250.378906 196.636719 249.941406 196.785156 249.328125 L 199.085938 239.617188 L 196.816406 239.617188 L 195.429688 245.46875 L 194.042969 239.617188 Z M 178.859375 241.769531 L 179.964844 241.769531 C 180.574219 241.769531 181.070312 242.25 181.070312 242.84375 L 181.070312 247.148438 C 181.070312 247.742188 180.574219 248.226562 179.964844 248.226562 L 178.859375 248.226562 Z M 178.859375 241.769531 "/>
</g>
</g>
</svg>
